<?xml version="1.0" encoding="iso-8859-1"?>
<!-- Generator: Adobe Illustrator 19.0.0, SVG Export Plug-In . SVG Version: 6.00 Build 0)  -->
<svg version="1.1" id="Layer_1" xmlns="http://www.w3.org/2000/svg" xmlns:xlink="http://www.w3.org/1999/xlink" x="0px" y="0px"
	 viewBox="0 0 512 512" style="enable-background:new 0 0 512 512;" xml:space="preserve">
<g>
	<g>
		<path d="M286.836,359.622c-4.082-4.079-10.697-4.079-14.778,0l-0.097,0.097c-4.08,4.081-4.08,10.698,0,14.778
			c2.041,2.04,4.714,3.06,7.388,3.06c2.674,0,5.348-1.021,7.39-3.06l0.097-0.097C290.916,370.318,290.916,363.702,286.836,359.622z"
			/>
	</g>
</g>
<g>
	<g>
		<path d="M501.551,469.168h-9.404V318.702c0-5.77-4.679-10.449-10.449-10.449h-1.192V93.556V33.134v-0.75
			c0-5.77-4.679-10.449-10.449-10.449H41.796c-5.77,0-10.449,4.679-10.449,10.449v275.87h-1.045c-5.77,0-10.449,4.679-10.449,10.449
			v150.465h-9.404C4.678,469.168,0,473.847,0,479.617c0,5.77,4.678,10.449,10.449,10.449h491.102c5.77,0,10.449-4.679,10.449-10.449
			C512,473.847,507.321,469.168,501.551,469.168z M394.862,42.832h64.747v50.724h-0.001c0,17.851-14.522,32.373-32.373,32.373
			s-32.373-14.522-32.373-32.373V42.832z M309.217,42.832h64.747v50.724c0,17.851-14.522,32.373-32.373,32.373
			s-32.374-14.522-32.374-32.373V42.832z M288.319,42.832v50.724c0,17.851-14.522,32.373-32.373,32.373
			s-32.373-14.522-32.373-32.373V42.832H288.319z M137.926,42.832h64.747v50.724c0,17.851-14.522,32.373-32.373,32.373
			c-17.851,0-32.374-14.522-32.374-32.373V42.832z M52.281,42.832h64.747v50.724c0,17.851-14.522,32.373-32.373,32.373
			c-17.851,0-32.374-14.522-32.374-32.373V42.832z M52.245,135.793c8.986,6.912,20.223,11.035,32.411,11.035
			c17.532,0,33.109-8.517,42.822-21.626c9.713,13.11,25.291,21.626,42.822,21.626s33.109-8.517,42.822-21.626
			c9.713,13.11,25.291,21.626,42.822,21.626c17.531,0,33.109-8.517,42.822-21.626c9.713,13.11,25.291,21.626,42.822,21.626
			c17.531,0,33.109-8.517,42.822-21.626c9.713,13.11,25.291,21.626,42.822,21.626c12.17,0,23.393-4.112,32.373-11.006v172.432
			h-123.18c-1.766-13.84-7.037-26.898-15.521-38.237c-7.245-9.683-16.651-17.644-27.263-23.241
			c6.722-10.578,10.665-23.154,10.665-34.4c0-3.576-0.403-7.101-1.178-10.548c5.955-6.12,9.634-14.467,9.634-23.661v-25.654
			c0-4.489-2.781-8.588-7.036-10.016c-4.239-1.423-8.822-0.102-11.536,3.443c-0.934,1.072-3.541,3.29-5.635,3.29h-54.776
			c-14.964,0-27.068,11.515-27.886,26.359c-0.032,0.335-0.049,0.677-0.049,1.023l0.01,13.685c0.001,5.042,1.054,9.29,3.039,12.67
			c-0.616,3.092-0.934,6.238-0.934,9.409c0,11.246,3.944,23.821,10.665,34.4c-10.612,5.596-20.018,13.558-27.262,23.24
			c-8.484,11.339-13.755,24.397-15.521,38.237H52.245V135.793z M278.809,191.225h-51.35c-0.255,0-0.482-0.006-0.682-0.016
			c-0.015-0.26-0.023-0.565-0.023-0.921c0-0.003,0-0.005,0-0.008l-0.01-13.122c0.004-0.066,0.006-0.134,0.008-0.201
			c0.109-3.828,3.196-6.827,7.029-6.827h54.776c1.139,0,2.242-0.08,3.309-0.228v8.266
			C291.864,185.367,286.008,191.225,278.809,191.225z M283.408,212.377c0,16.018-13.484,37.479-27.276,37.479
			c-13.792,0-27.276-21.461-27.276-37.479c0-0.085,0.009-0.169,0.01-0.254h49.942c1.556,0,3.085-0.115,4.585-0.319
			C283.398,211.995,283.408,212.185,283.408,212.377z M233.374,262.903c7.023,5.123,14.781,7.851,22.759,7.851
			c7.978,0,15.736-2.727,22.759-7.851c18.993,7.826,32.785,25.193,36.38,45.351H196.994
			C200.589,288.096,214.381,270.729,233.374,262.903z M192.069,469.166l70.766-70.766c4.08-4.08,4.08-10.697,0-14.778
			c-4.08-4.078-10.695-4.08-14.778,0l-85.545,85.544H40.751V329.15h1.045h370.118L271.897,469.166H192.069z M471.249,469.168
			H301.452l140.017-140.016h28.587h1.192V469.168z"/>
	</g>
</g>
<g>
</g>
<g>
</g>
<g>
</g>
<g>
</g>
<g>
</g>
<g>
</g>
<g>
</g>
<g>
</g>
<g>
</g>
<g>
</g>
<g>
</g>
<g>
</g>
<g>
</g>
<g>
</g>
<g>
</g>
</svg>
