<?xml version="1.0" encoding="iso-8859-1"?>
<!-- Generator: Adobe Illustrator 18.1.1, SVG Export Plug-In . SVG Version: 6.00 Build 0)  -->
<svg version="1.1" id="Capa_1" xmlns="http://www.w3.org/2000/svg" xmlns:xlink="http://www.w3.org/1999/xlink" x="0px" y="0px"
	 viewBox="0 0 495.328 495.328" style="enable-background:new 0 0 495.328 495.328;" xml:space="preserve">
<g>
	<g>
		<path style="fill:#010002;" d="M493.299,129.251c-1.283-0.925-2.93-1.169-4.421-0.674l-111.234,37.078
			c9.75-20.902,16.475-40.652,16.475-55.426c0-55.826-45.414-101.24-101.24-101.24c-55.82,0-101.24,45.414-101.24,101.24
			c0,8.079,1.969,17.578,5.305,27.895l-28.647-9.547c-0.137-0.048-0.28,0-0.424-0.036c-0.376-0.089-0.74-0.095-1.128-0.095
			c-0.388,0-0.752,0.006-1.128,0.095c-0.137,0.036-0.286-0.012-0.424,0.036L3.353,182.524C1.349,183.192,0,185.059,0,187.172
			v294.262c0,1.575,0.758,3.055,2.035,3.98c0.847,0.609,1.856,0.925,2.87,0.925c0.519,0,1.044-0.084,1.551-0.257l160.288-53.427
			l160.288,53.427c0.006,0,0.018,0,0.024,0.006c0.495,0.161,1.008,0.251,1.528,0.251s1.032-0.089,1.527-0.251
			c0.006,0,0.018,0,0.024-0.006l161.839-53.946c2.005-0.668,3.353-2.536,3.353-4.648V133.225
			C495.334,131.65,494.576,130.17,493.299,129.251z M161.845,423.949L9.816,474.626V190.71l152.03-50.677V423.949z M292.878,16.758
			c51.536,0,93.465,41.929,93.465,93.465c0,15.287-7.793,36.499-18.754,58.78c-2.029,4.129-4.171,8.294-6.391,12.471
			c-8.616,16.188-18.414,32.454-27.704,47.007c-3.365,5.275-6.659,10.317-9.81,15.054c-12.268,18.456-22.262,32.203-25.132,36.106
			l-3.347,4.553c-1.062,1.45-3.58,1.474-4.666-0.024l-3.335-4.529c-6.838-9.314-54.12-74.538-76.316-126.533
			c-1.736-4.063-3.312-8.043-4.708-11.91c-4.207-11.653-6.766-22.292-6.766-30.974C199.413,58.687,241.342,16.758,292.878,16.758z
			 M323.685,474.626l-152.03-50.677V140.033l29.512,9.839c20.55,52.186,68.171,118.574,79.783,134.38l3.324,4.517
			c1.999,2.739,5.221,4.368,8.61,4.368c3.395,0,6.605-1.629,8.592-4.344l3.341-4.541c2.375-3.228,9.559-13.109,18.867-26.815
			V474.626z M485.524,423.949l-152.03,50.677V242.729c12.405-18.963,26.594-42.078,38.134-64.735l113.902-37.967v283.922H485.524z"
			/>
		<path style="fill:#010002;" d="M292.878,162.373c24.184,0,43.856-19.673,43.856-43.851c-0.006-24.184-19.679-43.851-43.856-43.851
			c-24.178,0-43.851,19.673-43.851,43.851S268.7,162.373,292.878,162.373z M292.878,82.441c19.894,0,36.076,16.188,36.082,36.082
			c0,19.894-16.188,36.082-36.082,36.082c-19.894,0-36.082-16.188-36.082-36.082S272.984,82.441,292.878,82.441z"/>
	</g>
</g>
<g>
</g>
<g>
</g>
<g>
</g>
<g>
</g>
<g>
</g>
<g>
</g>
<g>
</g>
<g>
</g>
<g>
</g>
<g>
</g>
<g>
</g>
<g>
</g>
<g>
</g>
<g>
</g>
<g>
</g>
</svg>
